<svg width="800" height="150" viewBox="0 0 800 150" xmlns="http://www.w3.org/2000/svg">
  <defs>
    <filter id="glow" x="-20%" y="-20%" width="140%" height="140%">
      <feGaussianBlur stdDeviation="2" result="blur" />
      <feComposite in="SourceGraphic" in2="blur" operator="over" />
    </filter>
  </defs>
  <rect width="100%" height="100%" fill="#0d1117" rx="6" />
  <circle cx="20.0" cy="20.0" r="1" fill="#30363d" opacity="0.3"/>
  <circle cx="20.0" cy="35.714285714285715" r="1" fill="#30363d" opacity="0.3"/>
  <circle cx="20.0" cy="51.42857142857143" r="1" fill="#30363d" opacity="0.3"/>
  <circle cx="20.0" cy="67.14285714285714" r="1" fill="#30363d" opacity="0.3"/>
  <circle cx="20.0" cy="82.85714285714286" r="1" fill="#30363d" opacity="0.3"/>
  <circle cx="20.0" cy="98.57142857142857" r="1" fill="#30363d" opacity="0.3"/>
  <circle cx="20.0" cy="114.28571428571428" r="1" fill="#30363d" opacity="0.3"/>
  <circle cx="34.339622641509436" cy="20.0" r="1" fill="#30363d" opacity="0.3"/>
  <circle cx="34.339622641509436" cy="35.714285714285715" r="1" fill="#30363d" opacity="0.3"/>
  <circle cx="34.339622641509436" cy="51.42857142857143" r="1" fill="#30363d" opacity="0.3"/>
  <circle cx="34.339622641509436" cy="67.14285714285714" r="1" fill="#30363d" opacity="0.3"/>
  <circle cx="34.339622641509436" cy="82.85714285714286" r="1" fill="#30363d" opacity="0.3"/>
  <circle cx="34.339622641509436" cy="98.57142857142857" r="1" fill="#30363d" opacity="0.3"/>
  <circle cx="34.339622641509436" cy="114.28571428571428" r="1" fill="#30363d" opacity="0.3"/>
  <circle cx="48.67924528301887" cy="20.0" r="1" fill="#30363d" opacity="0.3"/>
  <circle cx="48.67924528301887" cy="35.714285714285715" r="1" fill="#30363d" opacity="0.3"/>
  <circle cx="48.67924528301887" cy="51.42857142857143" r="1" fill="#30363d" opacity="0.3"/>
  <circle cx="48.67924528301887" cy="67.14285714285714" r="1" fill="#30363d" opacity="0.3"/>
  <circle cx="48.67924528301887" cy="82.85714285714286" r="1" fill="#30363d" opacity="0.3"/>
  <circle cx="48.67924528301887" cy="98.57142857142857" r="1" fill="#30363d" opacity="0.3"/>
  <circle cx="48.67924528301887" cy="114.28571428571428" r="1" fill="#30363d" opacity="0.3"/>
  <circle cx="63.0188679245283" cy="20.0" r="1" fill="#30363d" opacity="0.3"/>
  <circle cx="63.0188679245283" cy="35.714285714285715" r="1" fill="#30363d" opacity="0.3"/>
  <circle cx="63.0188679245283" cy="51.42857142857143" r="1" fill="#30363d" opacity="0.3"/>
  <circle cx="63.0188679245283" cy="67.14285714285714" r="1" fill="#30363d" opacity="0.3"/>
  <circle cx="63.0188679245283" cy="82.85714285714286" r="1" fill="#30363d" opacity="0.3"/>
  <circle cx="63.0188679245283" cy="98.57142857142857" r="1" fill="#30363d" opacity="0.3"/>
  <circle cx="63.0188679245283" cy="114.28571428571428" r="1" fill="#30363d" opacity="0.3"/>
  <circle cx="77.35849056603774" cy="20.0" r="1" fill="#30363d" opacity="0.3"/>
  <circle cx="77.35849056603774" cy="35.714285714285715" r="1" fill="#30363d" opacity="0.3"/>
  <circle cx="77.35849056603774" cy="51.42857142857143" r="1" fill="#30363d" opacity="0.3"/>
  <circle cx="77.35849056603774" cy="67.14285714285714" r="1" fill="#30363d" opacity="0.3"/>
  <circle cx="77.35849056603774" cy="82.85714285714286" r="1" fill="#30363d" opacity="0.3"/>
  <circle cx="77.35849056603774" cy="98.57142857142857" r="1" fill="#30363d" opacity="0.3"/>
  <circle cx="77.35849056603774" cy="114.28571428571428" r="1" fill="#30363d" opacity="0.3"/>
  <circle cx="91.69811320754717" cy="20.0" r="1" fill="#30363d" opacity="0.3"/>
  <circle cx="91.69811320754717" cy="35.714285714285715" r="1" fill="#30363d" opacity="0.3"/>
  <circle cx="91.69811320754717" cy="51.42857142857143" r="1" fill="#30363d" opacity="0.3"/>
  <circle cx="91.69811320754717" cy="67.14285714285714" r="1" fill="#30363d" opacity="0.3"/>
  <circle cx="91.69811320754717" cy="82.85714285714286" r="1" fill="#30363d" opacity="0.3"/>
  <circle cx="91.69811320754717" cy="98.57142857142857" r="1" fill="#30363d" opacity="0.3"/>
  <circle cx="91.69811320754717" cy="114.28571428571428" r="1" fill="#30363d" opacity="0.3"/>
  <circle cx="106.0377358490566" cy="20.0" r="1" fill="#30363d" opacity="0.3"/>
  <circle cx="106.0377358490566" cy="35.714285714285715" r="1" fill="#30363d" opacity="0.3"/>
  <circle cx="106.0377358490566" cy="51.42857142857143" r="1" fill="#30363d" opacity="0.3"/>
  <circle cx="106.0377358490566" cy="67.14285714285714" r="1" fill="#30363d" opacity="0.3"/>
  <circle cx="106.0377358490566" cy="82.85714285714286" r="1" fill="#30363d" opacity="0.3"/>
  <circle cx="106.0377358490566" cy="98.57142857142857" r="1" fill="#30363d" opacity="0.3"/>
  <circle cx="106.0377358490566" cy="114.28571428571428" r="1" fill="#30363d" opacity="0.3"/>
  <circle cx="120.37735849056604" cy="20.0" r="1" fill="#30363d" opacity="0.3"/>
  <circle cx="120.37735849056604" cy="35.714285714285715" r="1" fill="#30363d" opacity="0.3"/>
  <circle cx="120.37735849056604" cy="51.42857142857143" r="1" fill="#30363d" opacity="0.3"/>
  <circle cx="120.37735849056604" cy="67.14285714285714" r="1" fill="#30363d" opacity="0.3"/>
  <circle cx="120.37735849056604" cy="82.85714285714286" r="1" fill="#30363d" opacity="0.3"/>
  <circle cx="120.37735849056604" cy="98.57142857142857" r="1" fill="#30363d" opacity="0.3"/>
  <circle cx="120.37735849056604" cy="114.28571428571428" r="1" fill="#30363d" opacity="0.3"/>
  <circle cx="134.7169811320755" cy="20.0" r="1" fill="#30363d" opacity="0.3"/>
  <circle cx="134.7169811320755" cy="35.714285714285715" r="1" fill="#30363d" opacity="0.3"/>
  <circle cx="134.7169811320755" cy="51.42857142857143" r="1" fill="#30363d" opacity="0.3"/>
  <circle cx="134.7169811320755" cy="67.14285714285714" r="1" fill="#30363d" opacity="0.3"/>
  <circle cx="134.7169811320755" cy="82.85714285714286" r="1" fill="#30363d" opacity="0.3"/>
  <circle cx="134.7169811320755" cy="98.57142857142857" r="1" fill="#30363d" opacity="0.3"/>
  <circle cx="134.7169811320755" cy="114.28571428571428" r="1" fill="#30363d" opacity="0.3"/>
  <circle cx="149.0566037735849" cy="20.0" r="1" fill="#30363d" opacity="0.3"/>
  <circle cx="149.0566037735849" cy="35.714285714285715" r="1" fill="#30363d" opacity="0.3"/>
  <circle cx="149.0566037735849" cy="51.42857142857143" r="1" fill="#30363d" opacity="0.3"/>
  <circle cx="149.0566037735849" cy="67.14285714285714" r="1" fill="#30363d" opacity="0.3"/>
  <circle cx="149.0566037735849" cy="82.85714285714286" r="1" fill="#30363d" opacity="0.3"/>
  <circle cx="149.0566037735849" cy="98.57142857142857" r="1" fill="#30363d" opacity="0.3"/>
  <circle cx="149.0566037735849" cy="114.28571428571428" r="1" fill="#30363d" opacity="0.3"/>
  <circle cx="163.39622641509433" cy="20.0" r="1" fill="#30363d" opacity="0.3"/>
  <circle cx="163.39622641509433" cy="35.714285714285715" r="1" fill="#30363d" opacity="0.3"/>
  <circle cx="163.39622641509433" cy="51.42857142857143" r="1" fill="#30363d" opacity="0.3"/>
  <circle cx="163.39622641509433" cy="67.14285714285714" r="1" fill="#30363d" opacity="0.3"/>
  <circle cx="163.39622641509433" cy="82.85714285714286" r="1" fill="#30363d" opacity="0.3"/>
  <circle cx="163.39622641509433" cy="98.57142857142857" r="1" fill="#30363d" opacity="0.3"/>
  <circle cx="163.39622641509433" cy="114.28571428571428" r="1" fill="#30363d" opacity="0.3"/>
  <circle cx="177.73584905660377" cy="20.0" r="1" fill="#30363d" opacity="0.3"/>
  <circle cx="177.73584905660377" cy="35.714285714285715" r="1" fill="#30363d" opacity="0.3"/>
  <circle cx="177.73584905660377" cy="51.42857142857143" r="1" fill="#30363d" opacity="0.3"/>
  <circle cx="177.73584905660377" cy="67.14285714285714" r="1" fill="#30363d" opacity="0.3"/>
  <circle cx="177.73584905660377" cy="82.85714285714286" r="1" fill="#30363d" opacity="0.3"/>
  <circle cx="177.73584905660377" cy="98.57142857142857" r="2.25" fill="#58a6ff" opacity="0.51" filter="url(#glow)"/>
  <circle cx="177.73584905660377" cy="114.28571428571428" r="3.5" fill="#58a6ff" opacity="0.8599999999999999" filter="url(#glow)"/>
  <circle cx="192.0754716981132" cy="20.0" r="1" fill="#30363d" opacity="0.3"/>
  <circle cx="192.0754716981132" cy="35.714285714285715" r="1" fill="#30363d" opacity="0.3"/>
  <circle cx="192.0754716981132" cy="51.42857142857143" r="1" fill="#30363d" opacity="0.3"/>
  <circle cx="192.0754716981132" cy="67.14285714285714" r="1" fill="#30363d" opacity="0.3"/>
  <circle cx="192.0754716981132" cy="82.85714285714286" r="1" fill="#30363d" opacity="0.3"/>
  <circle cx="192.0754716981132" cy="98.57142857142857" r="1" fill="#30363d" opacity="0.3"/>
  <circle cx="192.0754716981132" cy="114.28571428571428" r="1" fill="#30363d" opacity="0.3"/>
  <circle cx="206.41509433962264" cy="20.0" r="1" fill="#30363d" opacity="0.3"/>
  <circle cx="206.41509433962264" cy="35.714285714285715" r="1" fill="#30363d" opacity="0.3"/>
  <circle cx="206.41509433962264" cy="51.42857142857143" r="1" fill="#30363d" opacity="0.3"/>
  <circle cx="206.41509433962264" cy="67.14285714285714" r="1" fill="#30363d" opacity="0.3"/>
  <circle cx="206.41509433962264" cy="82.85714285714286" r="1" fill="#30363d" opacity="0.3"/>
  <circle cx="206.41509433962264" cy="98.57142857142857" r="1" fill="#30363d" opacity="0.3"/>
  <circle cx="206.41509433962264" cy="114.28571428571428" r="1" fill="#30363d" opacity="0.3"/>
  <circle cx="220.75471698113208" cy="20.0" r="1" fill="#30363d" opacity="0.3"/>
  <circle cx="220.75471698113208" cy="35.714285714285715" r="1" fill="#30363d" opacity="0.3"/>
  <circle cx="220.75471698113208" cy="51.42857142857143" r="1" fill="#30363d" opacity="0.3"/>
  <circle cx="220.75471698113208" cy="67.14285714285714" r="1" fill="#30363d" opacity="0.3"/>
  <circle cx="220.75471698113208" cy="82.85714285714286" r="1" fill="#30363d" opacity="0.3"/>
  <circle cx="220.75471698113208" cy="98.57142857142857" r="1" fill="#30363d" opacity="0.3"/>
  <circle cx="220.75471698113208" cy="114.28571428571428" r="1" fill="#30363d" opacity="0.3"/>
  <circle cx="235.0943396226415" cy="20.0" r="1" fill="#30363d" opacity="0.3"/>
  <circle cx="235.0943396226415" cy="35.714285714285715" r="1" fill="#30363d" opacity="0.3"/>
  <circle cx="235.0943396226415" cy="51.42857142857143" r="1" fill="#30363d" opacity="0.3"/>
  <circle cx="235.0943396226415" cy="67.14285714285714" r="1" fill="#30363d" opacity="0.3"/>
  <circle cx="235.0943396226415" cy="82.85714285714286" r="1" fill="#30363d" opacity="0.3"/>
  <circle cx="235.0943396226415" cy="98.57142857142857" r="1" fill="#30363d" opacity="0.3"/>
  <circle cx="235.0943396226415" cy="114.28571428571428" r="1" fill="#30363d" opacity="0.3"/>
  <circle cx="249.43396226415095" cy="20.0" r="1" fill="#30363d" opacity="0.3"/>
  <circle cx="249.43396226415095" cy="35.714285714285715" r="1" fill="#30363d" opacity="0.3"/>
  <circle cx="249.43396226415095" cy="51.42857142857143" r="1" fill="#30363d" opacity="0.3"/>
  <circle cx="249.43396226415095" cy="67.14285714285714" r="1" fill="#30363d" opacity="0.3"/>
  <circle cx="249.43396226415095" cy="82.85714285714286" r="1" fill="#30363d" opacity="0.3"/>
  <circle cx="249.43396226415095" cy="98.57142857142857" r="1" fill="#30363d" opacity="0.3"/>
  <circle cx="249.43396226415095" cy="114.28571428571428" r="1" fill="#30363d" opacity="0.3"/>
  <circle cx="263.7735849056604" cy="20.0" r="1" fill="#30363d" opacity="0.3"/>
  <circle cx="263.7735849056604" cy="35.714285714285715" r="1" fill="#30363d" opacity="0.3"/>
  <circle cx="263.7735849056604" cy="51.42857142857143" r="1" fill="#30363d" opacity="0.3"/>
  <circle cx="263.7735849056604" cy="67.14285714285714" r="1" fill="#30363d" opacity="0.3"/>
  <circle cx="263.7735849056604" cy="82.85714285714286" r="1" fill="#30363d" opacity="0.3"/>
  <circle cx="263.7735849056604" cy="98.57142857142857" r="1" fill="#30363d" opacity="0.3"/>
  <circle cx="263.7735849056604" cy="114.28571428571428" r="1" fill="#30363d" opacity="0.3"/>
  <circle cx="278.1132075471698" cy="20.0" r="1" fill="#30363d" opacity="0.3"/>
  <circle cx="278.1132075471698" cy="35.714285714285715" r="1" fill="#30363d" opacity="0.3"/>
  <circle cx="278.1132075471698" cy="51.42857142857143" r="1" fill="#30363d" opacity="0.3"/>
  <circle cx="278.1132075471698" cy="67.14285714285714" r="1" fill="#30363d" opacity="0.3"/>
  <circle cx="278.1132075471698" cy="82.85714285714286" r="1" fill="#30363d" opacity="0.3"/>
  <circle cx="278.1132075471698" cy="98.57142857142857" r="1" fill="#30363d" opacity="0.3"/>
  <circle cx="278.1132075471698" cy="114.28571428571428" r="1" fill="#30363d" opacity="0.3"/>
  <circle cx="292.45283018867923" cy="20.0" r="1" fill="#30363d" opacity="0.3"/>
  <circle cx="292.45283018867923" cy="35.714285714285715" r="1" fill="#30363d" opacity="0.3"/>
  <circle cx="292.45283018867923" cy="51.42857142857143" r="1" fill="#30363d" opacity="0.3"/>
  <circle cx="292.45283018867923" cy="67.14285714285714" r="1" fill="#30363d" opacity="0.3"/>
  <circle cx="292.45283018867923" cy="82.85714285714286" r="1" fill="#30363d" opacity="0.3"/>
  <circle cx="292.45283018867923" cy="98.57142857142857" r="1" fill="#30363d" opacity="0.3"/>
  <circle cx="292.45283018867923" cy="114.28571428571428" r="1" fill="#30363d" opacity="0.3"/>
  <circle cx="306.79245283018867" cy="20.0" r="1" fill="#30363d" opacity="0.3"/>
  <circle cx="306.79245283018867" cy="35.714285714285715" r="1" fill="#30363d" opacity="0.3"/>
  <circle cx="306.79245283018867" cy="51.42857142857143" r="1" fill="#30363d" opacity="0.3"/>
  <circle cx="306.79245283018867" cy="67.14285714285714" r="1" fill="#30363d" opacity="0.3"/>
  <circle cx="306.79245283018867" cy="82.85714285714286" r="1" fill="#30363d" opacity="0.3"/>
  <circle cx="306.79245283018867" cy="98.57142857142857" r="1" fill="#30363d" opacity="0.3"/>
  <circle cx="306.79245283018867" cy="114.28571428571428" r="1" fill="#30363d" opacity="0.3"/>
  <circle cx="321.1320754716981" cy="20.0" r="1" fill="#30363d" opacity="0.3"/>
  <circle cx="321.1320754716981" cy="35.714285714285715" r="1" fill="#30363d" opacity="0.3"/>
  <circle cx="321.1320754716981" cy="51.42857142857143" r="1" fill="#30363d" opacity="0.3"/>
  <circle cx="321.1320754716981" cy="67.14285714285714" r="1" fill="#30363d" opacity="0.3"/>
  <circle cx="321.1320754716981" cy="82.85714285714286" r="1" fill="#30363d" opacity="0.3"/>
  <circle cx="321.1320754716981" cy="98.57142857142857" r="1" fill="#30363d" opacity="0.3"/>
  <circle cx="321.1320754716981" cy="114.28571428571428" r="1" fill="#30363d" opacity="0.3"/>
  <circle cx="335.47169811320754" cy="20.0" r="1" fill="#30363d" opacity="0.3"/>
  <circle cx="335.47169811320754" cy="35.714285714285715" r="1" fill="#30363d" opacity="0.3"/>
  <circle cx="335.47169811320754" cy="51.42857142857143" r="1" fill="#30363d" opacity="0.3"/>
  <circle cx="335.47169811320754" cy="67.14285714285714" r="1" fill="#30363d" opacity="0.3"/>
  <circle cx="335.47169811320754" cy="82.85714285714286" r="1" fill="#30363d" opacity="0.3"/>
  <circle cx="335.47169811320754" cy="98.57142857142857" r="1" fill="#30363d" opacity="0.3"/>
  <circle cx="335.47169811320754" cy="114.28571428571428" r="1" fill="#30363d" opacity="0.3"/>
  <circle cx="349.811320754717" cy="20.0" r="1" fill="#30363d" opacity="0.3"/>
  <circle cx="349.811320754717" cy="35.714285714285715" r="1" fill="#30363d" opacity="0.3"/>
  <circle cx="349.811320754717" cy="51.42857142857143" r="1" fill="#30363d" opacity="0.3"/>
  <circle cx="349.811320754717" cy="67.14285714285714" r="1" fill="#30363d" opacity="0.3"/>
  <circle cx="349.811320754717" cy="82.85714285714286" r="1" fill="#30363d" opacity="0.3"/>
  <circle cx="349.811320754717" cy="98.57142857142857" r="1" fill="#30363d" opacity="0.3"/>
  <circle cx="349.811320754717" cy="114.28571428571428" r="1" fill="#30363d" opacity="0.3"/>
  <circle cx="364.1509433962264" cy="20.0" r="1" fill="#30363d" opacity="0.3"/>
  <circle cx="364.1509433962264" cy="35.714285714285715" r="1" fill="#30363d" opacity="0.3"/>
  <circle cx="364.1509433962264" cy="51.42857142857143" r="1" fill="#30363d" opacity="0.3"/>
  <circle cx="364.1509433962264" cy="67.14285714285714" r="1" fill="#30363d" opacity="0.3"/>
  <circle cx="364.1509433962264" cy="82.85714285714286" r="1" fill="#30363d" opacity="0.3"/>
  <circle cx="364.1509433962264" cy="98.57142857142857" r="1" fill="#30363d" opacity="0.3"/>
  <circle cx="364.1509433962264" cy="114.28571428571428" r="1" fill="#30363d" opacity="0.3"/>
  <circle cx="378.49056603773585" cy="20.0" r="1" fill="#30363d" opacity="0.3"/>
  <circle cx="378.49056603773585" cy="35.714285714285715" r="1" fill="#30363d" opacity="0.3"/>
  <circle cx="378.49056603773585" cy="51.42857142857143" r="1" fill="#30363d" opacity="0.3"/>
  <circle cx="378.49056603773585" cy="67.14285714285714" r="1" fill="#30363d" opacity="0.3"/>
  <circle cx="378.49056603773585" cy="82.85714285714286" r="1" fill="#30363d" opacity="0.3"/>
  <circle cx="378.49056603773585" cy="98.57142857142857" r="1" fill="#30363d" opacity="0.3"/>
  <circle cx="378.49056603773585" cy="114.28571428571428" r="1" fill="#30363d" opacity="0.3"/>
  <circle cx="392.8301886792453" cy="20.0" r="1" fill="#30363d" opacity="0.3"/>
  <circle cx="392.8301886792453" cy="35.714285714285715" r="1" fill="#30363d" opacity="0.3"/>
  <circle cx="392.8301886792453" cy="51.42857142857143" r="1" fill="#30363d" opacity="0.3"/>
  <circle cx="392.8301886792453" cy="67.14285714285714" r="1" fill="#30363d" opacity="0.3"/>
  <circle cx="392.8301886792453" cy="82.85714285714286" r="1" fill="#30363d" opacity="0.3"/>
  <circle cx="392.8301886792453" cy="98.57142857142857" r="1" fill="#30363d" opacity="0.3"/>
  <circle cx="392.8301886792453" cy="114.28571428571428" r="1" fill="#30363d" opacity="0.3"/>
  <circle cx="407.1698113207547" cy="20.0" r="1" fill="#30363d" opacity="0.3"/>
  <circle cx="407.1698113207547" cy="35.714285714285715" r="1" fill="#30363d" opacity="0.3"/>
  <circle cx="407.1698113207547" cy="51.42857142857143" r="1" fill="#30363d" opacity="0.3"/>
  <circle cx="407.1698113207547" cy="67.14285714285714" r="1" fill="#30363d" opacity="0.3"/>
  <circle cx="407.1698113207547" cy="82.85714285714286" r="1" fill="#30363d" opacity="0.3"/>
  <circle cx="407.1698113207547" cy="98.57142857142857" r="1" fill="#30363d" opacity="0.3"/>
  <circle cx="407.1698113207547" cy="114.28571428571428" r="1" fill="#30363d" opacity="0.3"/>
  <circle cx="421.50943396226415" cy="20.0" r="1" fill="#30363d" opacity="0.3"/>
  <circle cx="421.50943396226415" cy="35.714285714285715" r="1" fill="#30363d" opacity="0.3"/>
  <circle cx="421.50943396226415" cy="51.42857142857143" r="1" fill="#30363d" opacity="0.3"/>
  <circle cx="421.50943396226415" cy="67.14285714285714" r="1" fill="#30363d" opacity="0.3"/>
  <circle cx="421.50943396226415" cy="82.85714285714286" r="1" fill="#30363d" opacity="0.3"/>
  <circle cx="421.50943396226415" cy="98.57142857142857" r="1" fill="#30363d" opacity="0.3"/>
  <circle cx="421.50943396226415" cy="114.28571428571428" r="1" fill="#30363d" opacity="0.3"/>
  <circle cx="435.8490566037736" cy="20.0" r="1" fill="#30363d" opacity="0.3"/>
  <circle cx="435.8490566037736" cy="35.714285714285715" r="1" fill="#30363d" opacity="0.3"/>
  <circle cx="435.8490566037736" cy="51.42857142857143" r="1" fill="#30363d" opacity="0.3"/>
  <circle cx="435.8490566037736" cy="67.14285714285714" r="1" fill="#30363d" opacity="0.3"/>
  <circle cx="435.8490566037736" cy="82.85714285714286" r="1" fill="#30363d" opacity="0.3"/>
  <circle cx="435.8490566037736" cy="98.57142857142857" r="1" fill="#30363d" opacity="0.3"/>
  <circle cx="435.8490566037736" cy="114.28571428571428" r="1" fill="#30363d" opacity="0.3"/>
  <circle cx="450.188679245283" cy="20.0" r="1" fill="#30363d" opacity="0.3"/>
  <circle cx="450.188679245283" cy="35.714285714285715" r="1" fill="#30363d" opacity="0.3"/>
  <circle cx="450.188679245283" cy="51.42857142857143" r="1" fill="#30363d" opacity="0.3"/>
  <circle cx="450.188679245283" cy="67.14285714285714" r="1" fill="#30363d" opacity="0.3"/>
  <circle cx="450.188679245283" cy="82.85714285714286" r="1" fill="#30363d" opacity="0.3"/>
  <circle cx="450.188679245283" cy="98.57142857142857" r="1" fill="#30363d" opacity="0.3"/>
  <circle cx="450.188679245283" cy="114.28571428571428" r="1" fill="#30363d" opacity="0.3"/>
  <circle cx="464.52830188679246" cy="20.0" r="1" fill="#30363d" opacity="0.3"/>
  <circle cx="464.52830188679246" cy="35.714285714285715" r="1" fill="#30363d" opacity="0.3"/>
  <circle cx="464.52830188679246" cy="51.42857142857143" r="1" fill="#30363d" opacity="0.3"/>
  <circle cx="464.52830188679246" cy="67.14285714285714" r="1" fill="#30363d" opacity="0.3"/>
  <circle cx="464.52830188679246" cy="82.85714285714286" r="1" fill="#30363d" opacity="0.3"/>
  <circle cx="464.52830188679246" cy="98.57142857142857" r="1" fill="#30363d" opacity="0.3"/>
  <circle cx="464.52830188679246" cy="114.28571428571428" r="1" fill="#30363d" opacity="0.3"/>
  <circle cx="478.8679245283019" cy="20.0" r="1" fill="#30363d" opacity="0.3"/>
  <circle cx="478.8679245283019" cy="35.714285714285715" r="1" fill="#30363d" opacity="0.3"/>
  <circle cx="478.8679245283019" cy="51.42857142857143" r="1" fill="#30363d" opacity="0.3"/>
  <circle cx="478.8679245283019" cy="67.14285714285714" r="1" fill="#30363d" opacity="0.3"/>
  <circle cx="478.8679245283019" cy="82.85714285714286" r="1" fill="#30363d" opacity="0.3"/>
  <circle cx="478.8679245283019" cy="98.57142857142857" r="1" fill="#30363d" opacity="0.3"/>
  <circle cx="478.8679245283019" cy="114.28571428571428" r="1" fill="#30363d" opacity="0.3"/>
  <circle cx="493.20754716981133" cy="20.0" r="1" fill="#30363d" opacity="0.3"/>
  <circle cx="493.20754716981133" cy="35.714285714285715" r="1" fill="#30363d" opacity="0.3"/>
  <circle cx="493.20754716981133" cy="51.42857142857143" r="1" fill="#30363d" opacity="0.3"/>
  <circle cx="493.20754716981133" cy="67.14285714285714" r="1" fill="#30363d" opacity="0.3"/>
  <circle cx="493.20754716981133" cy="82.85714285714286" r="1" fill="#30363d" opacity="0.3"/>
  <circle cx="493.20754716981133" cy="98.57142857142857" r="1" fill="#30363d" opacity="0.3"/>
  <circle cx="493.20754716981133" cy="114.28571428571428" r="1" fill="#30363d" opacity="0.3"/>
  <circle cx="507.54716981132077" cy="20.0" r="1" fill="#30363d" opacity="0.3"/>
  <circle cx="507.54716981132077" cy="35.714285714285715" r="1" fill="#30363d" opacity="0.3"/>
  <circle cx="507.54716981132077" cy="51.42857142857143" r="1" fill="#30363d" opacity="0.3"/>
  <circle cx="507.54716981132077" cy="67.14285714285714" r="1" fill="#30363d" opacity="0.3"/>
  <circle cx="507.54716981132077" cy="82.85714285714286" r="1" fill="#30363d" opacity="0.3"/>
  <circle cx="507.54716981132077" cy="98.57142857142857" r="1" fill="#30363d" opacity="0.3"/>
  <circle cx="507.54716981132077" cy="114.28571428571428" r="1" fill="#30363d" opacity="0.3"/>
  <circle cx="521.8867924528302" cy="20.0" r="1" fill="#30363d" opacity="0.3"/>
  <circle cx="521.8867924528302" cy="35.714285714285715" r="1" fill="#30363d" opacity="0.3"/>
  <circle cx="521.8867924528302" cy="51.42857142857143" r="1" fill="#30363d" opacity="0.3"/>
  <circle cx="521.8867924528302" cy="67.14285714285714" r="1" fill="#30363d" opacity="0.3"/>
  <circle cx="521.8867924528302" cy="82.85714285714286" r="1" fill="#30363d" opacity="0.3"/>
  <circle cx="521.8867924528302" cy="98.57142857142857" r="1" fill="#30363d" opacity="0.3"/>
  <circle cx="521.8867924528302" cy="114.28571428571428" r="1" fill="#30363d" opacity="0.3"/>
  <circle cx="536.2264150943396" cy="20.0" r="1" fill="#30363d" opacity="0.3"/>
  <circle cx="536.2264150943396" cy="35.714285714285715" r="1" fill="#30363d" opacity="0.3"/>
  <circle cx="536.2264150943396" cy="51.42857142857143" r="1" fill="#30363d" opacity="0.3"/>
  <circle cx="536.2264150943396" cy="67.14285714285714" r="1" fill="#30363d" opacity="0.3"/>
  <circle cx="536.2264150943396" cy="82.85714285714286" r="1" fill="#30363d" opacity="0.3"/>
  <circle cx="536.2264150943396" cy="98.57142857142857" r="1" fill="#30363d" opacity="0.3"/>
  <circle cx="536.2264150943396" cy="114.28571428571428" r="1" fill="#30363d" opacity="0.3"/>
  <circle cx="550.566037735849" cy="20.0" r="1" fill="#30363d" opacity="0.3"/>
  <circle cx="550.566037735849" cy="35.714285714285715" r="1" fill="#30363d" opacity="0.3"/>
  <circle cx="550.566037735849" cy="51.42857142857143" r="1" fill="#30363d" opacity="0.3"/>
  <circle cx="550.566037735849" cy="67.14285714285714" r="1" fill="#30363d" opacity="0.3"/>
  <circle cx="550.566037735849" cy="82.85714285714286" r="1" fill="#30363d" opacity="0.3"/>
  <circle cx="550.566037735849" cy="98.57142857142857" r="1" fill="#30363d" opacity="0.3"/>
  <circle cx="550.566037735849" cy="114.28571428571428" r="1" fill="#30363d" opacity="0.3"/>
  <circle cx="564.9056603773585" cy="20.0" r="1" fill="#30363d" opacity="0.3"/>
  <circle cx="564.9056603773585" cy="35.714285714285715" r="1" fill="#30363d" opacity="0.3"/>
  <circle cx="564.9056603773585" cy="51.42857142857143" r="1" fill="#30363d" opacity="0.3"/>
  <circle cx="564.9056603773585" cy="67.14285714285714" r="1" fill="#30363d" opacity="0.3"/>
  <circle cx="564.9056603773585" cy="82.85714285714286" r="1" fill="#30363d" opacity="0.3"/>
  <circle cx="564.9056603773585" cy="98.57142857142857" r="1" fill="#30363d" opacity="0.3"/>
  <circle cx="564.9056603773585" cy="114.28571428571428" r="1" fill="#30363d" opacity="0.3"/>
  <circle cx="579.2452830188679" cy="20.0" r="1" fill="#30363d" opacity="0.3"/>
  <circle cx="579.2452830188679" cy="35.714285714285715" r="1" fill="#30363d" opacity="0.3"/>
  <circle cx="579.2452830188679" cy="51.42857142857143" r="1" fill="#30363d" opacity="0.3"/>
  <circle cx="579.2452830188679" cy="67.14285714285714" r="1" fill="#30363d" opacity="0.3"/>
  <circle cx="579.2452830188679" cy="82.85714285714286" r="1" fill="#30363d" opacity="0.3"/>
  <circle cx="579.2452830188679" cy="98.57142857142857" r="1" fill="#30363d" opacity="0.3"/>
  <circle cx="579.2452830188679" cy="114.28571428571428" r="1" fill="#30363d" opacity="0.3"/>
  <circle cx="593.5849056603773" cy="20.0" r="1" fill="#30363d" opacity="0.3"/>
  <circle cx="593.5849056603773" cy="35.714285714285715" r="1" fill="#30363d" opacity="0.3"/>
  <circle cx="593.5849056603773" cy="51.42857142857143" r="1" fill="#30363d" opacity="0.3"/>
  <circle cx="593.5849056603773" cy="67.14285714285714" r="1" fill="#30363d" opacity="0.3"/>
  <circle cx="593.5849056603773" cy="82.85714285714286" r="1" fill="#30363d" opacity="0.3"/>
  <circle cx="593.5849056603773" cy="98.57142857142857" r="1" fill="#30363d" opacity="0.3"/>
  <circle cx="593.5849056603773" cy="114.28571428571428" r="1" fill="#30363d" opacity="0.3"/>
  <circle cx="607.9245283018868" cy="20.0" r="1" fill="#30363d" opacity="0.3"/>
  <circle cx="607.9245283018868" cy="35.714285714285715" r="1" fill="#30363d" opacity="0.3"/>
  <circle cx="607.9245283018868" cy="51.42857142857143" r="1" fill="#30363d" opacity="0.3"/>
  <circle cx="607.9245283018868" cy="67.14285714285714" r="1" fill="#30363d" opacity="0.3"/>
  <circle cx="607.9245283018868" cy="82.85714285714286" r="1" fill="#30363d" opacity="0.3"/>
  <circle cx="607.9245283018868" cy="98.57142857142857" r="1" fill="#30363d" opacity="0.3"/>
  <circle cx="607.9245283018868" cy="114.28571428571428" r="1" fill="#30363d" opacity="0.3"/>
  <circle cx="622.2641509433962" cy="20.0" r="1" fill="#30363d" opacity="0.3"/>
  <circle cx="622.2641509433962" cy="35.714285714285715" r="1" fill="#30363d" opacity="0.3"/>
  <circle cx="622.2641509433962" cy="51.42857142857143" r="1" fill="#30363d" opacity="0.3"/>
  <circle cx="622.2641509433962" cy="67.14285714285714" r="1" fill="#30363d" opacity="0.3"/>
  <circle cx="622.2641509433962" cy="82.85714285714286" r="1" fill="#30363d" opacity="0.3"/>
  <circle cx="622.2641509433962" cy="98.57142857142857" r="1" fill="#30363d" opacity="0.3"/>
  <circle cx="622.2641509433962" cy="114.28571428571428" r="1" fill="#30363d" opacity="0.3"/>
  <circle cx="636.6037735849056" cy="20.0" r="1" fill="#30363d" opacity="0.3"/>
  <circle cx="636.6037735849056" cy="35.714285714285715" r="1" fill="#30363d" opacity="0.3"/>
  <circle cx="636.6037735849056" cy="51.42857142857143" r="1" fill="#30363d" opacity="0.3"/>
  <circle cx="636.6037735849056" cy="67.14285714285714" r="1" fill="#30363d" opacity="0.3"/>
  <circle cx="636.6037735849056" cy="82.85714285714286" r="1" fill="#30363d" opacity="0.3"/>
  <circle cx="636.6037735849056" cy="98.57142857142857" r="1" fill="#30363d" opacity="0.3"/>
  <circle cx="636.6037735849056" cy="114.28571428571428" r="1" fill="#30363d" opacity="0.3"/>
  <circle cx="650.9433962264151" cy="20.0" r="1" fill="#30363d" opacity="0.3"/>
  <circle cx="650.9433962264151" cy="35.714285714285715" r="1" fill="#30363d" opacity="0.3"/>
  <circle cx="650.9433962264151" cy="51.42857142857143" r="1" fill="#30363d" opacity="0.3"/>
  <circle cx="650.9433962264151" cy="67.14285714285714" r="1" fill="#30363d" opacity="0.3"/>
  <circle cx="650.9433962264151" cy="82.85714285714286" r="1" fill="#30363d" opacity="0.3"/>
  <circle cx="650.9433962264151" cy="98.57142857142857" r="1" fill="#30363d" opacity="0.3"/>
  <circle cx="650.9433962264151" cy="114.28571428571428" r="1" fill="#30363d" opacity="0.3"/>
  <circle cx="665.2830188679245" cy="20.0" r="1" fill="#30363d" opacity="0.3"/>
  <circle cx="665.2830188679245" cy="35.714285714285715" r="1" fill="#30363d" opacity="0.3"/>
  <circle cx="665.2830188679245" cy="51.42857142857143" r="1" fill="#30363d" opacity="0.3"/>
  <circle cx="665.2830188679245" cy="67.14285714285714" r="1" fill="#30363d" opacity="0.3"/>
  <circle cx="665.2830188679245" cy="82.85714285714286" r="1" fill="#30363d" opacity="0.3"/>
  <circle cx="665.2830188679245" cy="98.57142857142857" r="1" fill="#30363d" opacity="0.3"/>
  <circle cx="665.2830188679245" cy="114.28571428571428" r="1" fill="#30363d" opacity="0.3"/>
  <circle cx="679.622641509434" cy="20.0" r="1" fill="#30363d" opacity="0.3"/>
  <circle cx="679.622641509434" cy="35.714285714285715" r="1" fill="#30363d" opacity="0.3"/>
  <circle cx="679.622641509434" cy="51.42857142857143" r="1" fill="#30363d" opacity="0.3"/>
  <circle cx="679.622641509434" cy="67.14285714285714" r="1" fill="#30363d" opacity="0.3"/>
  <circle cx="679.622641509434" cy="82.85714285714286" r="1" fill="#30363d" opacity="0.3"/>
  <circle cx="679.622641509434" cy="98.57142857142857" r="1" fill="#30363d" opacity="0.3"/>
  <circle cx="679.622641509434" cy="114.28571428571428" r="1" fill="#30363d" opacity="0.3"/>
  <circle cx="693.9622641509434" cy="20.0" r="2.75" fill="#58a6ff" opacity="0.6499999999999999" filter="url(#glow)"/>
  <circle cx="693.9622641509434" cy="35.714285714285715" r="1" fill="#30363d" opacity="0.3"/>
  <circle cx="693.9622641509434" cy="51.42857142857143" r="1" fill="#30363d" opacity="0.3"/>
  <circle cx="693.9622641509434" cy="67.14285714285714" r="1" fill="#30363d" opacity="0.3"/>
  <circle cx="693.9622641509434" cy="82.85714285714286" r="1" fill="#30363d" opacity="0.3"/>
  <circle cx="693.9622641509434" cy="98.57142857142857" r="1" fill="#30363d" opacity="0.3"/>
  <circle cx="693.9622641509434" cy="114.28571428571428" r="1" fill="#30363d" opacity="0.3"/>
  <circle cx="708.3018867924528" cy="20.0" r="1" fill="#30363d" opacity="0.3"/>
  <circle cx="708.3018867924528" cy="35.714285714285715" r="1" fill="#30363d" opacity="0.3"/>
  <circle cx="708.3018867924528" cy="51.42857142857143" r="1" fill="#30363d" opacity="0.3"/>
  <circle cx="708.3018867924528" cy="67.14285714285714" r="1" fill="#30363d" opacity="0.3"/>
  <circle cx="708.3018867924528" cy="82.85714285714286" r="1" fill="#30363d" opacity="0.3"/>
  <circle cx="708.3018867924528" cy="98.57142857142857" r="1" fill="#30363d" opacity="0.3"/>
  <circle cx="708.3018867924528" cy="114.28571428571428" r="2.75" fill="#58a6ff" opacity="0.6499999999999999" filter="url(#glow)"/>
  <circle cx="722.6415094339623" cy="20.0" r="1" fill="#30363d" opacity="0.3"/>
  <circle cx="722.6415094339623" cy="35.714285714285715" r="1" fill="#30363d" opacity="0.3"/>
  <circle cx="722.6415094339623" cy="51.42857142857143" r="1" fill="#30363d" opacity="0.3"/>
  <circle cx="722.6415094339623" cy="67.14285714285714" r="1" fill="#30363d" opacity="0.3"/>
  <circle cx="722.6415094339623" cy="82.85714285714286" r="1" fill="#30363d" opacity="0.3"/>
  <circle cx="722.6415094339623" cy="98.57142857142857" r="1" fill="#30363d" opacity="0.3"/>
  <circle cx="722.6415094339623" cy="114.28571428571428" r="1" fill="#30363d" opacity="0.3"/>
  <circle cx="736.9811320754717" cy="20.0" r="1" fill="#30363d" opacity="0.3"/>
  <circle cx="736.9811320754717" cy="35.714285714285715" r="1" fill="#30363d" opacity="0.3"/>
  <circle cx="736.9811320754717" cy="51.42857142857143" r="1" fill="#30363d" opacity="0.3"/>
  <circle cx="736.9811320754717" cy="67.14285714285714" r="1" fill="#30363d" opacity="0.3"/>
  <circle cx="736.9811320754717" cy="82.85714285714286" r="1" fill="#30363d" opacity="0.3"/>
  <circle cx="736.9811320754717" cy="98.57142857142857" r="1" fill="#30363d" opacity="0.3"/>
  <circle cx="736.9811320754717" cy="114.28571428571428" r="1" fill="#30363d" opacity="0.3"/>
  <circle cx="751.3207547169811" cy="20.0" r="1" fill="#30363d" opacity="0.3"/>
  <circle cx="751.3207547169811" cy="35.714285714285715" r="1" fill="#30363d" opacity="0.3"/>
  <circle cx="751.3207547169811" cy="51.42857142857143" r="1" fill="#30363d" opacity="0.3"/>
  <circle cx="751.3207547169811" cy="67.14285714285714" r="1" fill="#30363d" opacity="0.3"/>
  <circle cx="751.3207547169811" cy="82.85714285714286" r="1" fill="#30363d" opacity="0.3"/>
  <circle cx="751.3207547169811" cy="98.57142857142857" r="1" fill="#30363d" opacity="0.3"/>
  <circle cx="751.3207547169811" cy="114.28571428571428" r="1" fill="#30363d" opacity="0.3"/>
  <circle cx="765.6603773584906" cy="20.0" r="1" fill="#30363d" opacity="0.3"/>
  <circle cx="765.6603773584906" cy="35.714285714285715" r="1" fill="#30363d" opacity="0.3"/>
  <circle cx="765.6603773584906" cy="51.42857142857143" r="1" fill="#30363d" opacity="0.3"/>
  <circle cx="765.6603773584906" cy="67.14285714285714" r="1" fill="#30363d" opacity="0.3"/>
  <circle cx="765.6603773584906" cy="82.85714285714286" r="2.75" fill="#58a6ff" opacity="0.6499999999999999" filter="url(#glow)"/>
  <line x1="177.73584905660377" y1="98.57142857142857" x2="177.73584905660377" y2="114.28571428571428" stroke="#58a6ff" stroke-width="0.5" opacity="0.165" />
  <text x="20" y="145" font-family="monospace" font-size="10" fill="#8b949e">> SYSTEM_LOG: 26 neural activations in the last 365 days.</text>
</svg>